<?xml version="1.0" encoding="UTF-8" standalone="no"?>
<!-- Generator: Adobe Illustrator 18.1.0, SVG Export Plug-In . SVG Version: 6.00 Build 0)  -->

<svg
   version="1.1"
   x="0px"
   y="0px"
   viewBox="0 0 263.5665 263.5665"
   enable-background="new 0 0 512 512"
   xml:space="preserve"
   id="svg6020"
   sodipodi:docname="favicon.svg"
   width="263.5665"
   height="263.5665"
   inkscape:version="1.1 (c68e22c387, 2021-05-23)"
   xmlns:inkscape="http://www.inkscape.org/namespaces/inkscape"
   xmlns:sodipodi="http://sodipodi.sourceforge.net/DTD/sodipodi-0.dtd"
   xmlns="http://www.w3.org/2000/svg"
   xmlns:svg="http://www.w3.org/2000/svg"><defs
   id="defs6024"><clipPath
     clipPathUnits="userSpaceOnUse"
     id="clipPath6142"><circle
       style="fill:#000000"
       id="circle6144"
       cx="119.1724"
       cy="147.5468"
       r="131.78325" /></clipPath><clipPath
     clipPathUnits="userSpaceOnUse"
     id="clipPath6146"><circle
       style="fill:#000000"
       id="circle6148"
       cx="119.1724"
       cy="147.5468"
       r="131.78325" /></clipPath></defs><sodipodi:namedview
   id="namedview6022"
   pagecolor="#505050"
   bordercolor="#eeeeee"
   borderopacity="1"
   inkscape:pageshadow="0"
   inkscape:pageopacity="0"
   inkscape:pagecheckerboard="0"
   showgrid="false"
   fit-margin-top="0"
   fit-margin-left="0"
   fit-margin-right="0"
   fit-margin-bottom="0"
   inkscape:zoom="1.5859375"
   inkscape:cx="268.29557"
   inkscape:cy="181.28079"
   inkscape:window-width="1920"
   inkscape:window-height="1001"
   inkscape:window-x="-9"
   inkscape:window-y="-9"
   inkscape:window-maximized="1"
   inkscape:current-layer="svg6020" />
<g
   id="Layer_2"
   transform="translate(12.610847,-15.76355)"
   clip-path="url(#clipPath6146)">
	<path
   fill="#d5dee4"
   d="m 99.122,230.878 c -12.947,22.467 -35.553,30.017 -42.142,30.613 -1.022,0.092 -1.833,-1.164 -1.5,-2.376 0.93,-3.38 1.333,-7.111 1.135,-11.06 -3.774,0.434 -6.777,0.12 -8.146,-0.267 -0.487,-0.138 -0.639,-0.86 -0.272,-1.359 3.032,-4.12 4.493,-10.455 2.768,-17.86 -4.214,-7.921 -10.923,-15.907 -20.689,-23.165 l 72.452,-9.338 c 0.001,0 8.099,14.501 -3.606,34.812 z m 382.841,54.944 -284.269,61.719 c 15.987,34.354 36.784,13.002 33.816,85.27 -0.249,6.054 -0.293,10.924 -0.143,14.837 -1.229,4.993 -2.27,9.596 -2.163,11.367 0.766,12.767 42.731,15.807 39.333,-1.86 -0.629,-3.273 -2.098,-18.774 -2.667,-20 -0.087,0.008 -0.167,0.011 -0.253,0.018 1.722,-5.796 3.293,-12.15 4.881,-18.522 14.147,-56.75 4.918,-69.884 100.355,-75.125 30.321,-1.665 54.19,1.531 49.823,48.338 -1.285,13.778 -3.864,36.875 -0.545,50.276 -0.901,5.432 -1.71,10.631 -1.595,12.541 0.766,12.767 41.731,15.807 38.333,-1.86 -0.629,-3.273 -3.167,-20 -2.083,-23.545 -0.036,0.003 -0.071,0.006 -0.107,0.01 1.882,-4.071 3.508,-8.623 4.762,-13.615 2.311,-9.196 15.928,-123.563 22.522,-129.849 z"
   id="path5998" />
</g>
<g
   id="Layer_3"
   transform="translate(12.610847,-15.76355)">
	<g
   id="g6003">
		<path
   fill="#ffb941"
   d="m 154.069,191.207 c 0,0 -0.586,-0.302 -1.685,-0.869 -0.275,-0.142 -0.581,-0.3 -0.919,-0.474 -0.084,-0.044 -0.171,-0.088 -0.259,-0.134 -0.19,-0.08 -0.384,-0.161 -0.582,-0.244 -0.408,-0.174 -0.832,-0.354 -1.273,-0.542 -0.879,-0.38 -1.818,-0.796 -2.809,-1.253 -0.493,-0.231 -1.002,-0.469 -1.526,-0.714 -0.458,-0.235 -0.85,-0.461 -1.294,-0.704 -1.731,-0.969 -3.655,-2.022 -5.604,-3.326 -0.98,-0.645 -2.016,-1.293 -3.031,-2.025 -1.002,-0.741 -2.041,-1.509 -3.113,-2.303 -4.188,-3.257 -8.542,-7.219 -12.652,-11.929 -4.113,-4.706 -7.988,-10.152 -11.289,-16.282 -3.3,-6.126 -6.034,-12.944 -7.834,-20.304 -1.822,-7.334 -2.607,-15.301 -2.034,-23.359 0.52,-8.043 2.654,-16.203 6.118,-23.472 3.423,-7.314 8.333,-13.563 13.617,-18.456 l 0.994,-0.913 0.497,-0.451 0.248,-0.224 0.062,-0.056 c 0.163,-0.179 -0.276,0.321 0.38,-0.415 l 0.098,-0.071 1.571,-1.128 c 0.745,-0.587 1.636,-1.29 2.448,-1.9 0.434,-0.341 0.782,-0.549 1.164,-0.808 l 1.124,-0.737 c 3.013,-1.916 6.11,-3.492 9.218,-4.755 6.214,-2.543 12.495,-3.766 18.375,-4.035 5.893,-0.241 11.407,0.495 16.213,1.95 4.816,1.412 8.893,3.542 12.127,5.783 3.245,2.247 5.648,4.632 7.392,6.7 1.751,2.068 2.877,3.817 3.603,5.013 0.689,1.209 1.057,1.854 1.057,1.854 l 0.079,0.138 c 1.221,2.143 0.475,4.87 -1.668,6.091 -1.774,1.011 -3.952,0.669 -5.341,-0.694 0,0 -0.403,-0.395 -1.157,-1.137 -0.769,-0.718 -1.925,-1.738 -3.513,-2.82 -1.58,-1.088 -3.61,-2.222 -6.074,-3.094 -2.46,-0.87 -5.343,-1.515 -8.533,-1.591 -3.177,-0.118 -6.65,0.336 -10.127,1.395 -3.468,1.084 -6.957,2.76 -10.067,5.087 -1.557,1.154 -3.026,2.449 -4.364,3.866 -0.313,0.355 -0.693,0.732 -0.955,1.061 l -0.798,0.986 -1.164,1.498 -0.073,0.094 c 0.319,-0.357 0.074,-0.076 0.138,-0.145 l -0.026,0.04 -0.103,0.16 -0.205,0.319 -0.412,0.636 c -2.186,3.39 -3.791,7.014 -4.504,10.747 -0.74,3.721 -0.829,7.49 -0.159,11.157 0.635,3.658 1.837,7.195 3.542,10.404 1.678,3.214 3.746,6.112 5.978,8.592 2.232,2.483 4.624,4.544 6.953,6.184 2.33,1.644 4.593,2.865 6.612,3.79 0.509,0.217 1.001,0.426 1.477,0.629 0.473,0.201 0.948,0.336 1.388,0.503 0.876,0.349 1.712,0.537 2.444,0.76 0.18,0.052 0.356,0.103 0.526,0.152 0.133,0.021 0.262,0.042 0.387,0.062 0.245,0.047 0.475,0.091 0.688,0.131 0.105,0.023 0.206,0.046 0.303,0.068 l 0.151,0.035 c 0.096,0.018 0.189,0.036 0.281,0.054 0.366,0.07 0.698,0.133 0.996,0.19 1.191,0.227 1.826,0.348 1.826,0.348 l 3.767,0.719 c 15.705,2.997 26.007,18.157 23.01,33.862 -2.997,15.705 -18.157,26.007 -33.862,23.01 -2.756,-0.523 -5.463,-1.492 -7.843,-2.704 z"
   id="path6001" />
	</g>
</g>
<g
   id="Layer_4"
   transform="translate(12.610847,-15.76355)">
	<g
   id="g6008">
		<path
   fill="#ffde76"
   d="m 104.153,159.483 c 0,0 -0.358,-0.474 -1.03,-1.362 -0.168,-0.222 -0.355,-0.47 -0.562,-0.743 -0.103,-0.136 -0.211,-0.279 -0.324,-0.428 l -0.172,-0.228 -0.097,-0.124 -0.21,-0.223 c -1.128,-1.2 -2.403,-2.592 -3.782,-4.17 -0.326,-0.382 -0.738,-0.828 -1.011,-1.19 -0.279,-0.367 -0.564,-0.742 -0.857,-1.127 -0.574,-0.771 -1.176,-1.578 -1.802,-2.419 -1.248,-1.67 -2.471,-3.613 -3.783,-5.619 -2.522,-4.142 -5.167,-8.883 -7.402,-14.413 -2.252,-5.498 -4.227,-11.647 -5.445,-18.355 -1.212,-6.701 -1.694,-13.919 -1.131,-21.214 0.071,-0.912 0.129,-1.821 0.231,-2.732 0.126,-0.908 0.252,-1.82 0.379,-2.736 0.14,-0.905 0.28,-1.813 0.42,-2.725 0.192,-0.899 0.385,-1.801 0.578,-2.705 0.206,-0.893 0.413,-1.79 0.621,-2.688 l 0.08,-0.335 c 0.056,-0.471 -0.097,0.937 0.131,-1.078 l 0.021,-0.05 0.041,-0.1 0.166,-0.4 0.332,-0.802 0.667,-1.609 c 0.326,-0.986 0.653,-1.974 0.98,-2.964 0.348,-1.019 0.708,-2.042 1.079,-3.034 l 1.126,-2.485 c 0.386,-0.821 0.751,-1.645 1.167,-2.448 l 1.287,-2.384 c 1.726,-3.156 3.714,-6.143 5.85,-8.956 4.289,-5.618 9.294,-10.495 14.741,-14.383 5.434,-3.9 11.258,-6.834 17.04,-8.776 1.467,-0.448 2.865,-0.958 4.32,-1.28 0.718,-0.169 1.432,-0.337 2.143,-0.505 l 1.056,-0.239 0.131,-0.029 0.066,-0.015 c -0.073,0.032 0.886,-0.341 0.503,-0.185 l 0.201,-0.019 0.401,-0.038 c 1.565,-0.032 5.711,-0.866 8.071,-0.799 5.366,-0.186 10.335,0.409 14.705,1.489 4.376,1.077 8.148,2.641 11.249,4.32 3.099,1.696 5.57,3.416 7.42,5.026 0.949,0.759 1.724,1.524 2.392,2.176 0.678,0.636 1.213,1.215 1.631,1.701 0.834,0.947 1.279,1.453 1.279,1.453 l 0.158,0.179 c 1.855,2.106 1.651,5.316 -0.454,7.171 -1.641,1.446 -3.962,1.635 -5.78,0.654 0,0 -0.436,-0.236 -1.252,-0.679 -0.399,-0.231 -0.903,-0.495 -1.52,-0.755 -0.607,-0.276 -1.292,-0.606 -2.104,-0.877 -1.575,-0.634 -3.581,-1.159 -5.875,-1.549 -2.299,-0.376 -4.931,-0.531 -7.755,-0.281 -2.822,0.246 -5.832,0.896 -8.818,2.015 -0.372,0.14 -0.746,0.281 -1.122,0.423 -0.321,0.151 -0.643,0.302 -0.968,0.455 l -0.483,0.22 -0.252,0.114 -0.345,0.17 c -0.461,0.227 -0.924,0.456 -1.39,0.686 l -0.35,0.173 -0.175,0.087 c -0.239,0.096 0.275,-0.106 0.211,-0.077 l -0.033,0.021 -0.067,0.042 -0.536,0.332 c -0.357,0.218 -0.715,0.438 -1.075,0.658 -0.732,0.41 -1.386,0.977 -2.088,1.448 -2.727,2.038 -5.204,4.517 -7.276,7.319 -2.084,2.793 -3.718,5.94 -4.877,9.186 -0.571,1.628 -1.055,3.272 -1.369,4.935 l -0.246,1.236 c -0.075,0.412 -0.105,0.834 -0.163,1.246 l -0.162,1.231 -0.023,1.003 -0.053,1.034 -0.049,1.688 -0.024,0.841 -0.012,0.42 -0.003,0.105 -0.002,0.052 c 0.103,-0.919 0.031,-0.233 0.055,-0.429 l 0.014,0.149 0.104,1.177 0.091,1.158 0.19,1.139 0.171,1.12 c 0.072,0.37 0.178,0.735 0.26,1.098 0.668,2.904 1.706,5.578 2.948,7.983 1.252,2.405 2.763,4.517 4.267,6.355 1.478,1.858 3.123,3.356 4.546,4.655 0.778,0.603 1.424,1.221 2.123,1.704 0.34,0.247 0.665,0.484 0.976,0.711 0.312,0.235 0.606,0.456 0.828,0.562 0.473,0.271 0.877,0.521 1.221,0.745 0.638,0.4 1.181,0.741 1.622,1.017 0.915,0.573 1.403,0.878 1.403,0.878 l 4.65,2.911 c 15.518,9.716 20.221,30.172 10.505,45.69 -9.716,15.518 -30.172,20.221 -45.69,10.505 -3.485,-2.184 -6.495,-5.015 -8.849,-8.105 z"
   id="path6006" />
	</g>
</g>
<g
   id="Layer_5"
   transform="translate(12.610847,-15.76355)"
   clip-path="url(#clipPath6142)">
	<path
   fill="#a9b8c2"
   d="m 514.839,125.619 c -0.925,-4.732 -2.612,-9.323 -4.748,-13.598 -2.147,-4.292 -5.068,-8.104 -8.166,-11.442 -0.837,-0.781 -1.663,-1.552 -2.477,-2.312 -0.414,-0.374 -0.825,-0.744 -1.233,-1.112 -0.439,-0.33 -0.875,-0.657 -1.308,-0.982 -0.877,-0.639 -1.738,-1.267 -2.584,-1.883 -0.864,-0.587 -1.769,-1.062 -2.634,-1.572 -0.874,-0.489 -1.725,-1 -2.581,-1.421 -0.872,-0.38 -1.724,-0.752 -2.554,-1.114 -0.835,-0.35 -1.65,-0.712 -2.45,-1.011 -0.807,-0.25 -1.592,-0.493 -2.352,-0.729 -3.059,-1.031 -5.725,-1.39 -7.941,-1.817 -0.277,-0.048 -0.546,-0.095 -0.808,-0.141 -0.257,-0.024 -0.507,-0.047 -0.749,-0.07 -0.485,-0.043 -0.94,-0.084 -1.364,-0.122 -0.849,-0.07 -1.571,-0.13 -2.156,-0.179 -1.173,-0.089 -1.799,-0.136 -1.799,-0.136 -0.036,-0.003 -0.127,-0.009 -0.163,-0.011 -5.778,-0.348 -10.744,4.055 -11.092,9.833 -0.348,5.778 4.055,10.744 9.833,11.092 l 1.421,0.086 c 0,0 0.411,0.025 1.182,0.071 0.385,0.021 0.86,0.047 1.419,0.077 0.279,0.014 0.58,0.028 0.9,0.044 0.324,0.003 0.66,0.034 1.003,0.106 1.377,0.258 3.115,0.389 4.926,0.987 0.463,0.122 0.941,0.249 1.432,0.378 0.474,0.167 0.941,0.379 1.434,0.568 0.491,0.191 0.995,0.388 1.511,0.589 0.5,0.229 0.974,0.526 1.482,0.787 0.495,0.281 1.036,0.514 1.531,0.838 0.484,0.339 0.976,0.684 1.478,1.035 0.253,0.172 0.509,0.345 0.766,0.519 0.233,0.207 0.467,0.416 0.703,0.626 0.477,0.414 0.962,0.835 1.453,1.261 1.79,1.898 3.603,4.019 4.982,6.624 1.364,2.594 2.567,5.454 3.263,8.572 0.688,3.109 1.079,6.376 1.028,9.665 -0.096,3.285 -0.544,6.555 -1.327,9.673 -0.869,3.09 -2.049,5.995 -3.471,8.614 -0.393,0.625 -0.783,1.245 -1.17,1.859 -0.358,0.637 -0.802,1.191 -1.237,1.74 -0.337,0.411 -0.645,0.843 -0.976,1.245 -18.943,-33.146 -54.994,-37.358 -100.758,-37.358 -68.621,0 -110.497,12.553 -170.541,12.553 -56.951,0 -34.988,-34.22 -90.827,-59.24 -1.102,-0.822 -2.284,-1.653 -3.558,-2.489 -2.108,-1.372 -4.444,-2.735 -6.936,-4.005 -2.499,-1.285 -5.148,-2.465 -7.895,-3.545 -2.737,-1.069 -5.578,-2.039 -8.412,-2.858 -2.853,-0.828 -5.703,-1.533 -8.473,-2.19 -2.794,-0.643 -5.493,-1.223 -8.087,-1.752 -2.534,-0.501 -5.027,-0.994 -7.44,-1.471 -1.211,-0.214 -2.311,-0.456 -3.441,-0.695 -1.09,-0.233 -2.212,-0.446 -3.226,-0.705 -1.064,-0.242 -2.047,-0.481 -3.053,-0.738 -0.92,-0.293 -1.961,-0.504 -2.829,-0.811 -1.841,-0.554 -3.513,-1.179 -5.046,-1.815 -1.516,-0.644 -2.897,-1.288 -4.013,-1.896 -1.155,-0.584 -2.069,-1.114 -2.681,-1.493 -0.651,-0.372 -0.998,-0.57 -0.998,-0.57 L 50.46,51.45 c -0.611,-0.346 -1.303,-0.572 -2.047,-0.644 -2.846,-0.276 -5.377,1.807 -5.653,4.653 0,0 -0.045,0.459 -0.082,1.329 -0.015,0.859 -0.091,2.166 0.057,3.796 0.063,0.82 0.128,1.75 0.312,2.719 0.169,0.977 0.324,2.086 0.637,3.192 0.287,1.125 0.594,2.362 1.05,3.582 0.224,0.625 0.453,1.266 0.688,1.922 0.252,0.643 0.54,1.284 0.833,1.951 0.29,0.675 0.605,1.344 0.945,2.008 0.331,0.676 0.689,1.36 1.067,2.045 0.775,1.31 1.572,2.762 2.491,4.078 0.911,1.371 1.874,2.694 2.897,4.056 1.034,1.285 2.121,2.636 3.229,3.901 2.261,2.543 4.639,5.007 7.076,7.288 0.862,0.81 1.732,1.581 2.602,2.356 -6.475,9.015 -12.809,16.486 -18.792,22.864 -10.752,8.679 -19.514,16.872 -25.929,24.893 -11.023,10.516 -17.366,18.915 -15.381,33.313 4.319,31.325 36.198,29.46 36.198,29.46 0,0 4.412,0.845 11.152,1.667 7.811,1.646 21.749,4.166 35.779,4.659 l 20.366,5.649 c 14.385,0 35.935,58.178 56.997,106.78 15.245,35.179 38.998,14.999 31.498,86.996 -3.958,38.001 2.495,48.317 15.995,48.317 12.161,0 20.018,-39.412 26.999,-60.317 18.664,-55.889 -9.995,-70.496 93.5,-70.496 32.881,0 58.497,4.5 50.997,50.997 -3.285,20.367 -11.999,79.816 5.409,79.816 11.091,0 27.55,-31.492 35.089,-53.92 3.044,-9.055 21.671,-73.978 29.173,-79.893 15.714,-12.39 48.296,-58.746 48.296,-93.214 0,-23.99 -2.573,-42.874 -7.398,-57.727 0.283,-0.232 0.565,-0.465 0.857,-0.694 0.784,-0.661 1.645,-1.279 2.363,-2.044 0.745,-0.745 1.5,-1.501 2.265,-2.266 0.764,-0.769 1.403,-1.642 2.116,-2.483 0.704,-0.849 1.409,-1.714 2.004,-2.651 0.622,-0.923 1.259,-1.857 1.871,-2.813 2.301,-3.894 4.179,-8.156 5.569,-12.642 1.301,-4.502 2.101,-9.208 2.371,-13.979 0.226,-4.777 -0.167,-9.607 -1.087,-14.335 z"
   id="path6011" />
</g>
<g
   id="Layer_6"
   transform="translate(12.610847,-15.76355)">
	<path
   fill="#2b3b47"
   d="m 75.381,118.897 c -6.284,-0.352 -11.664,4.457 -12.016,10.742 l -1.102,19.677 c -0.352,6.284 4.457,11.664 10.742,12.016 v 0 c 6.284,0.352 11.664,-4.457 12.016,-10.742 l 1.102,-19.677 c 0.351,-6.284 -4.458,-11.664 -10.742,-12.016 z"
   id="path6014" />
</g>
<g
   id="Layer_7"
   transform="translate(12.610847,-15.76355)">
	<path
   fill="#d9dbd5"
   d="m 231,467.333 c 3.398,17.667 -38.567,14.627 -39.333,1.86 -0.253,-4.22 6,-24.498 5.807,-27.869 11.21,5.021 17.974,7.119 30.86,6.009 0.568,1.226 2.037,16.728 2.666,20 z m 182.25,-26.878 c -12.886,1.111 -21.234,2.557 -32.443,-2.463 0.193,3.371 -4.06,23.649 -3.807,27.869 0.766,12.767 41.731,15.807 38.333,-1.86 -0.629,-3.274 -3.166,-20.001 -2.083,-23.546 z"
   id="path6017" />
</g>
</svg>
